<?xml version="1.0" encoding="UTF-8" standalone="no"?>
<!-- Created with Inkscape (http://www.inkscape.org/) -->

<svg
   xmlns:dc="http://purl.org/dc/elements/1.1/"
   xmlns:cc="http://creativecommons.org/ns#"
   xmlns:rdf="http://www.w3.org/1999/02/22-rdf-syntax-ns#"
   xmlns:svg="http://www.w3.org/2000/svg"
   xmlns="http://www.w3.org/2000/svg"
   xmlns:sodipodi="http://sodipodi.sourceforge.net/DTD/sodipodi-0.dtd"
   xmlns:inkscape="http://www.inkscape.org/namespaces/inkscape"
   width="210mm"
   height="297mm"
   viewBox="0 0 210 297"
   version="1.1"
   id="svg8"
   inkscape:version="0.92.5 (2060ec1f9f, 2020-04-08)"
   sodipodi:docname="felhok.svg">
  <defs
     id="defs2" />
  <sodipodi:namedview
     id="base"
     pagecolor="#ffffff"
     bordercolor="#666666"
     borderopacity="1.0"
     inkscape:pageopacity="0.0"
     inkscape:pageshadow="2"
     inkscape:zoom="0.9899495"
     inkscape:cx="163.63473"
     inkscape:cy="347.90863"
     inkscape:document-units="mm"
     inkscape:current-layer="layer1"
     showgrid="false"
     inkscape:window-width="1920"
     inkscape:window-height="1049"
     inkscape:window-x="0"
     inkscape:window-y="1080"
     inkscape:window-maximized="1" />
  <metadata
     id="metadata5">
    <rdf:RDF>
      <cc:Work
         rdf:about="">
        <dc:format>image/svg+xml</dc:format>
        <dc:type
           rdf:resource="http://purl.org/dc/dcmitype/StillImage" />
        <dc:title></dc:title>
      </cc:Work>
    </rdf:RDF>
  </metadata>
  <g
     inkscape:label="1. réteg"
     inkscape:groupmode="layer"
     id="layer1">
    <path
       style="opacity:1;fill:#f6f6f3;fill-opacity:0.98039216;fill-rule:nonzero;stroke:none;stroke-width:0.33165744;stroke-linecap:round;stroke-linejoin:round;stroke-miterlimit:4;stroke-dasharray:none;stroke-dashoffset:0;stroke-opacity:1;paint-order:normal"
       id="path815"
       sodipodi:type="arc"
       sodipodi:cx="34.694893"
       sodipodi:cy="-106.47229"
       sodipodi:rx="22.398766"
       sodipodi:ry="22.398766"
       sodipodi:start="0"
       sodipodi:end="3.1415927"
       sodipodi:open="true"
       d="m 57.093658,-106.47229 a 22.398766,22.398766 0 0 1 -11.199383,19.3979 22.398766,22.398766 0 0 1 -22.398765,0 22.398766,22.398766 0 0 1 -11.199383,-19.3979"
       transform="scale(1,-1)"
       inkscape:export-xdpi="200"
       inkscape:export-ydpi="200" />
    <path
       style="opacity:1;fill:#f6f6f3;fill-opacity:0.98039216;fill-rule:nonzero;stroke:none;stroke-width:0.31613305;stroke-linecap:round;stroke-linejoin:round;stroke-miterlimit:4;stroke-dasharray:none;stroke-dashoffset:0;stroke-opacity:1;paint-order:normal"
       id="path815-3"
       sodipodi:type="arc"
       sodipodi:cx="110.75539"
       sodipodi:cy="-106.32932"
       sodipodi:rx="21.350313"
       sodipodi:ry="21.350313"
       sodipodi:start="0"
       sodipodi:end="3.1415927"
       sodipodi:open="true"
       d="m 132.1057,-106.32932 a 21.350313,21.350313 0 0 1 -10.67516,18.489911 21.350313,21.350313 0 0 1 -21.35031,-10e-7 21.350313,21.350313 0 0 1 -10.675157,-18.48991"
       transform="scale(1,-1)"
       inkscape:export-xdpi="200"
       inkscape:export-ydpi="200" />
    <path
       style="opacity:1;fill:#f6f6f3;fill-opacity:0.98039216;fill-rule:nonzero;stroke:none;stroke-width:0.49678048;stroke-linecap:round;stroke-linejoin:round;stroke-miterlimit:4;stroke-dasharray:none;stroke-dashoffset:0;stroke-opacity:1;paint-order:normal"
       id="path815-3-6"
       sodipodi:type="arc"
       sodipodi:cx="72.725143"
       sodipodi:cy="-106.47229"
       sodipodi:rx="33.550491"
       sodipodi:ry="33.550491"
       sodipodi:start="0"
       sodipodi:end="3.1415927"
       sodipodi:open="true"
       d="m 106.27563,-106.47229 a 33.550491,33.550491 0 0 1 -16.775241,29.055578 33.550491,33.550491 0 0 1 -33.550492,-10e-7 33.550491,33.550491 0 0 1 -16.775245,-29.055577"
       transform="scale(1,-1)"
       inkscape:export-xdpi="200"
       inkscape:export-ydpi="200" />
    <path
       style="opacity:0.97699998;fill:#f6f6f3;fill-opacity:1;fill-rule:nonzero;stroke:none;stroke-width:0.69651061;stroke-linecap:round;stroke-linejoin:round;stroke-miterlimit:4;stroke-dasharray:none;stroke-dashoffset:0;stroke-opacity:1;paint-order:normal"
       id="path815-3-7"
       sodipodi:type="arc"
       sodipodi:cx="-85.903435"
       sodipodi:cy="-67.149551"
       sodipodi:rx="47.039436"
       sodipodi:ry="47.039436"
       sodipodi:start="0"
       sodipodi:end="3.1415927"
       sodipodi:open="true"
       d="m -38.863998,-67.149551 a 47.039436,47.039436 0 0 1 -23.519719,40.737347 47.039436,47.039436 0 0 1 -47.039433,-1e-6 47.039436,47.039436 0 0 1 -23.51972,-40.737349"
       transform="scale(1,-1)" />
    <path
       style="opacity:1;fill:#f6f6f3;fill-opacity:0.98039216;fill-rule:nonzero;stroke:none;stroke-width:0.35629591;stroke-linecap:round;stroke-linejoin:round;stroke-miterlimit:4;stroke-dasharray:none;stroke-dashoffset:0;stroke-opacity:1;paint-order:normal"
       id="path815-3-6-3"
       sodipodi:type="arc"
       sodipodi:cx="41.218109"
       sodipodi:cy="105.55818"
       sodipodi:rx="28.927769"
       sodipodi:ry="20.015921"
       sodipodi:start="0"
       sodipodi:end="3.1415927"
       sodipodi:open="true"
       d="m 70.145878,105.55818 a 28.927769,20.015921 0 0 1 -14.463885,17.3343 28.927769,20.015921 0 0 1 -28.927769,0 28.927769,20.015921 0 0 1 -14.463884,-17.3343"
       inkscape:export-xdpi="200"
       inkscape:export-ydpi="200" />
    <path
       style="opacity:1;fill:#f6f6f3;fill-opacity:0.98039216;fill-rule:nonzero;stroke:none;stroke-width:0.35717532;stroke-linecap:round;stroke-linejoin:round;stroke-miterlimit:4;stroke-dasharray:none;stroke-dashoffset:0;stroke-opacity:1;paint-order:normal"
       id="path815-3-6-3-5"
       sodipodi:type="arc"
       sodipodi:cx="74.440796"
       sodipodi:cy="100.27689"
       sodipodi:rx="29.07074"
       sodipodi:ry="20.015921"
       sodipodi:start="0"
       sodipodi:end="3.1415927"
       sodipodi:open="true"
       d="m 103.51154,100.27689 a 29.07074,20.015921 0 0 1 -14.535375,17.3343 29.07074,20.015921 0 0 1 -29.07074,0 29.07074,20.015921 0 0 1 -14.535369,-17.3343"
       inkscape:export-xdpi="200"
       inkscape:export-ydpi="200" />
    <path
       style="opacity:1;fill:#f6f6f3;fill-opacity:0.98039216;fill-rule:nonzero;stroke:none;stroke-width:0.22321881;stroke-linecap:round;stroke-linejoin:round;stroke-miterlimit:4;stroke-dasharray:none;stroke-dashoffset:0;stroke-opacity:1;paint-order:normal"
       id="path815-3-6-3-5-6"
       sodipodi:type="arc"
       sodipodi:cx="111.89915"
       sodipodi:cy="105.4189"
       sodipodi:rx="20.206547"
       sodipodi:ry="11.247042"
       sodipodi:start="0"
       sodipodi:end="3.1415927"
       sodipodi:open="true"
       d="m 132.10569,105.4189 a 20.206547,11.247042 0 0 1 -10.10327,9.74022 20.206547,11.247042 0 0 1 -20.20655,0 20.206547,11.247042 0 0 1 -10.10327,-9.74022"
       inkscape:export-xdpi="200"
       inkscape:export-ydpi="200" />
    <path
       style="opacity:1;fill:#f6f6f3;fill-opacity:0.98039216;fill-rule:nonzero;stroke:none;stroke-width:0.46767846;stroke-linecap:round;stroke-linejoin:round;stroke-miterlimit:4;stroke-dasharray:none;stroke-dashoffset:0;stroke-opacity:1;paint-order:normal"
       id="path815-2"
       sodipodi:type="arc"
       sodipodi:cx="-118.19093"
       sodipodi:cy="-36.483776"
       sodipodi:rx="31.58506"
       sodipodi:ry="31.58506"
       sodipodi:start="0"
       sodipodi:end="3.1415927"
       sodipodi:open="true"
       d="m -86.605873,-36.483776 a 31.58506,31.58506 0 0 1 -15.792527,27.3534646 31.58506,31.58506 0 0 1 -31.58506,-7e-7 31.58506,31.58506 0 0 1 -15.79253,-27.3534659"
       transform="scale(-1)"
       inkscape:export-xdpi="200"
       inkscape:export-ydpi="200" />
    <path
       style="opacity:1;fill:#f6f6f3;fill-opacity:0.98039216;fill-rule:nonzero;stroke:none;stroke-width:0.44578713;stroke-linecap:round;stroke-linejoin:round;stroke-miterlimit:4;stroke-dasharray:none;stroke-dashoffset:0;stroke-opacity:1;paint-order:normal"
       id="path815-3-9"
       sodipodi:type="arc"
       sodipodi:cx="-40.040318"
       sodipodi:cy="-35.148235"
       sodipodi:rx="30.106611"
       sodipodi:ry="30.106611"
       sodipodi:start="0"
       sodipodi:end="3.1415927"
       sodipodi:open="true"
       d="m -9.9337063,-35.148235 a 30.106611,30.106611 0 0 1 -15.0533057,26.0730901 30.106611,30.106611 0 0 1 -30.106612,-7e-7 30.106611,30.106611 0 0 1 -15.053305,-26.0730914"
       transform="scale(-1)"
       inkscape:export-xdpi="200"
       inkscape:export-ydpi="200" />
    <path
       style="opacity:1;fill:#f6f6f3;fill-opacity:0.98039216;fill-rule:nonzero;stroke:none;stroke-width:0.37802118;stroke-linecap:round;stroke-linejoin:round;stroke-miterlimit:4;stroke-dasharray:none;stroke-dashoffset:0;stroke-opacity:1;paint-order:normal"
       id="path815-3-6-1"
       sodipodi:type="arc"
       sodipodi:cx="-79.434669"
       sodipodi:cy="-39.507587"
       sodipodi:rx="23.249952"
       sodipodi:ry="28.033606"
       sodipodi:start="0"
       sodipodi:end="3.1415927"
       sodipodi:open="true"
       d="m -56.184717,-39.507587 a 23.249952,28.033606 0 0 1 -11.624977,24.277814 23.249952,28.033606 0 0 1 -23.249952,0 23.249952,28.033606 0 0 1 -11.624974,-24.277816"
       transform="scale(-1)"
       inkscape:export-xdpi="200"
       inkscape:export-ydpi="200" />
    <path
       style="opacity:1;fill:#f6f6f3;fill-opacity:0.98039216;fill-rule:nonzero;stroke:none;stroke-width:0.33165744;stroke-linecap:round;stroke-linejoin:round;stroke-miterlimit:4;stroke-dasharray:none;stroke-dashoffset:0;stroke-opacity:1;paint-order:normal"
       d="m 130.95117,243.13086 c 0.33077,-12.82693 -11.76204,-24.14384 -24.54956,-22.82979 -11.6463,0.52045 -21.531062,11.18149 -21.305907,22.81612 2.876605,1.2943 6.781817,0.18532 10.054296,0.55469 11.757291,-10e-6 23.514581,0 35.271881,0 l 0.37005,-0.37826 z"
       id="path815-36"
       inkscape:connector-curvature="0"
       inkscape:export-filename="/home/panni/Programzás/JavaScript/gepelo/images/felho4.png"
       inkscape:export-xdpi="200"
       inkscape:export-ydpi="200" />
    <path
       style="opacity:1;fill:#f6f6f3;fill-opacity:0.98039216;fill-rule:nonzero;stroke:none;stroke-width:0.31613305;stroke-linecap:round;stroke-linejoin:round;stroke-miterlimit:4;stroke-dasharray:none;stroke-dashoffset:0;stroke-opacity:1;paint-order:normal"
       d="m 53.84375,242.45703 c 0.313537,-12.25971 -11.259211,-23.06651 -23.479317,-21.77988 -11.093669,0.51992 -20.4950104,10.68487 -20.280449,21.76816 2.876605,1.29431 6.781817,0.18533 10.054297,0.55469 11.058724,0 22.117448,0 33.176172,0 l 0.369376,-0.37892 z"
       id="path815-3-0"
       inkscape:connector-curvature="0"
       inkscape:export-filename="/home/panni/Programzás/JavaScript/gepelo/images/felho4.png"
       inkscape:export-xdpi="200"
       inkscape:export-ydpi="200" />
    <path
       style="opacity:1;fill:#f6f6f3;fill-opacity:0.98039216;fill-rule:nonzero;stroke:none;stroke-width:0.49678048;stroke-linecap:round;stroke-linejoin:round;stroke-miterlimit:4;stroke-dasharray:none;stroke-dashoffset:0;stroke-opacity:1;paint-order:normal"
       d="m 104.07422,242.59961 c 0.28482,-16.58887 -13.166564,-32.00097 -29.701837,-33.74077 -16.664224,-2.57763 -33.901122,9.28296 -37.468449,25.76035 -0.425849,2.71269 -1.637141,6.07004 -0.460575,8.52339 22.367188,0 44.734375,0 67.101561,0 l 0.36938,-0.37892 z"
       id="path815-3-6-6"
       inkscape:connector-curvature="0"
       inkscape:export-filename="/home/panni/Programzás/JavaScript/gepelo/images/felho4.png"
       inkscape:export-xdpi="200"
       inkscape:export-ydpi="200" />
    <path
       style="opacity:1;fill:#f6f6f3;fill-opacity:0.98039216;fill-rule:nonzero;stroke:none;stroke-width:0.35629591;stroke-linecap:round;stroke-linejoin:round;stroke-miterlimit:4;stroke-dasharray:none;stroke-dashoffset:0;stroke-opacity:1;paint-order:normal"
       d="m 130.95703,242.24609 c -0.30739,10.87134 -11.08334,17.68347 -20.76381,19.59686 -12.456387,2.58013 -27.613878,-0.14383 -35.421915,-11.01596 -1.571989,-2.60253 -3.460991,-6.28861 -2.199039,-9.12777 19.285156,0 38.570314,0 57.855464,0 l 0.36802,0.38024 z"
       id="path815-3-6-3-2"
       inkscape:connector-curvature="0"
       inkscape:export-filename="/home/panni/Programzás/JavaScript/gepelo/images/felho4.png"
       inkscape:export-xdpi="200"
       inkscape:export-ydpi="200" />
    <path
       style="opacity:1;fill:#f6f6f3;fill-opacity:0.98039216;fill-rule:nonzero;stroke:none;stroke-width:0.35717532;stroke-linecap:round;stroke-linejoin:round;stroke-miterlimit:4;stroke-dasharray:none;stroke-dashoffset:0;stroke-opacity:1;paint-order:normal"
       d="m 97.878906,236.4375 c -0.325752,10.89821 -11.159187,17.68187 -20.856143,19.59262 -12.50933,2.5764 -27.725459,-0.11771 -35.601954,-11.00974 -1.578138,-2.60172 -3.479238,-6.28838 -2.213778,-9.13171 19.38086,0 38.761719,0 58.142578,0 l 0.367339,0.3809 z"
       id="path815-3-6-3-5-61"
       inkscape:connector-curvature="0"
       inkscape:export-filename="/home/panni/Programzás/JavaScript/gepelo/images/felho4.png"
       inkscape:export-xdpi="200"
       inkscape:export-ydpi="200" />
    <path
       style="opacity:1;fill:#f6f6f3;fill-opacity:0.98039216;fill-rule:nonzero;stroke:none;stroke-width:0.22321881;stroke-linecap:round;stroke-linejoin:round;stroke-miterlimit:4;stroke-dasharray:none;stroke-dashoffset:0;stroke-opacity:1;paint-order:normal"
       d="m 51.554688,242.11133 c -0.652122,7.2883 -8.925336,10.28725 -15.154297,11.32422 -8.617426,1.12082 -19.134931,0.13937 -24.923501,-7.11796 -1.138818,-1.43772 -2.6107833,-5.54553 0.723891,-4.75704 12.941537,0 25.883073,0 38.82461,0 l 0.366661,0.38154 z"
       id="path815-3-6-3-5-6-8"
       inkscape:connector-curvature="0"
       inkscape:export-filename="/home/panni/Programzás/JavaScript/gepelo/images/felho4.png"
       inkscape:export-xdpi="200"
       inkscape:export-ydpi="200" />
    <path
       style="opacity:1;fill:#f6f6f3;fill-opacity:0.98039216;fill-rule:nonzero;stroke:none;stroke-width:0.44207904;stroke-linecap:round;stroke-linejoin:round;stroke-miterlimit:4;stroke-dasharray:none;stroke-dashoffset:0;stroke-opacity:1;paint-order:normal"
       id="path815-2-79"
       sodipodi:type="arc"
       sodipodi:cx="-93.650993"
       sodipodi:cy="31.508259"
       sodipodi:rx="31.585062"
       sodipodi:ry="28.221939"
       sodipodi:start="0"
       sodipodi:end="3.1415927"
       sodipodi:open="true"
       d="m -62.065931,31.508259 a 31.585062,28.221939 0 0 1 -15.792532,24.440916 31.585062,28.221939 0 0 1 -31.585067,0 31.585062,28.221939 0 0 1 -15.79253,-24.440917"
       transform="scale(-1,1)"
       inkscape:export-xdpi="200"
       inkscape:export-ydpi="200" />
    <path
       style="opacity:1;fill:#f6f6f3;fill-opacity:0.98039216;fill-rule:nonzero;stroke:none;stroke-width:0.40920717;stroke-linecap:round;stroke-linejoin:round;stroke-miterlimit:4;stroke-dasharray:none;stroke-dashoffset:0;stroke-opacity:1;paint-order:normal"
       id="path815-2-79-2-0"
       sodipodi:type="arc"
       sodipodi:cx="-40.261856"
       sodipodi:cy="33.020176"
       sodipodi:rx="30.356642"
       sodipodi:ry="25.159466"
       sodipodi:start="0"
       sodipodi:end="3.1415927"
       sodipodi:open="true"
       d="m -9.9052143,33.020176 a 30.356642,25.159466 0 0 1 -15.1783217,21.788737 30.356642,25.159466 0 0 1 -30.356642,-10e-7 30.356642,25.159466 0 0 1 -15.17832,-21.788737"
       transform="scale(-1,1)"
       inkscape:export-xdpi="200"
       inkscape:export-ydpi="200" />
    <path
       style="opacity:1;fill:#f6f6f3;fill-opacity:0.98039216;fill-rule:nonzero;stroke:none;stroke-width:0.27160937;stroke-linecap:round;stroke-linejoin:round;stroke-miterlimit:4;stroke-dasharray:none;stroke-dashoffset:0;stroke-opacity:1;paint-order:normal"
       id="path815-2-79-23"
       sodipodi:type="arc"
       sodipodi:cx="-129.32387"
       sodipodi:cy="35.826511"
       sodipodi:rx="20.434767"
       sodipodi:ry="16.466015"
       sodipodi:start="0"
       sodipodi:end="3.1415927"
       sodipodi:open="true"
       d="m -108.8891,35.826511 a 20.434767,16.466015 0 0 1 -10.21738,14.259988 20.434767,16.466015 0 0 1 -20.43477,-1e-6 20.434767,16.466015 0 0 1 -10.21738,-14.259987"
       transform="scale(-1,1)"
       inkscape:export-xdpi="200"
       inkscape:export-ydpi="200" />
    <path
       style="opacity:1;fill:#f6f6f3;fill-opacity:0.98039216;fill-rule:nonzero;stroke:none;stroke-width:0.33165744;stroke-linecap:round;stroke-linejoin:round;stroke-miterlimit:4;stroke-dasharray:none;stroke-dashoffset:0;stroke-opacity:1;paint-order:normal"
       id="path815-7-7-1"
       sodipodi:type="arc"
       sodipodi:cx="98.345871"
       sodipodi:cy="164.14232"
       sodipodi:rx="22.398766"
       sodipodi:ry="22.398766"
       sodipodi:start="0"
       sodipodi:end="3.1415927"
       sodipodi:open="true"
       d="m 120.74464,164.14232 a 22.398766,22.398766 0 0 1 -11.19939,19.3979 22.398766,22.398766 0 0 1 -22.398762,0 22.398766,22.398766 0 0 1 -11.199383,-19.3979"
       inkscape:export-xdpi="200"
       inkscape:export-ydpi="200" />
    <path
       style="opacity:1;fill:#f6f6f3;fill-opacity:0.98039216;fill-rule:nonzero;stroke:none;stroke-width:0.31613305;stroke-linecap:round;stroke-linejoin:round;stroke-miterlimit:4;stroke-dasharray:none;stroke-dashoffset:0;stroke-opacity:1;paint-order:normal"
       id="path815-3-5-3-9"
       sodipodi:type="arc"
       sodipodi:cx="174.40636"
       sodipodi:cy="163.75613"
       sodipodi:rx="21.350313"
       sodipodi:ry="21.350313"
       sodipodi:start="0"
       sodipodi:end="3.1415927"
       sodipodi:open="true"
       d="m 195.75667,163.75613 a 21.350313,21.350313 0 0 1 -10.67516,18.48992 21.350313,21.350313 0 0 1 -21.35031,0 21.350313,21.350313 0 0 1 -10.67516,-18.48992"
       inkscape:export-xdpi="200"
       inkscape:export-ydpi="200" />
    <path
       style="opacity:1;fill:#f6f6f3;fill-opacity:0.98039216;fill-rule:nonzero;stroke:none;stroke-width:0.49678048;stroke-linecap:round;stroke-linejoin:round;stroke-miterlimit:4;stroke-dasharray:none;stroke-dashoffset:0;stroke-opacity:1;paint-order:normal"
       id="path815-3-6-9-6-4"
       sodipodi:type="arc"
       sodipodi:cx="136.37611"
       sodipodi:cy="164.14232"
       sodipodi:rx="33.550491"
       sodipodi:ry="33.550491"
       sodipodi:start="0"
       sodipodi:end="3.1415927"
       sodipodi:open="true"
       d="m 169.92661,164.14232 a 33.550491,33.550491 0 0 1 -16.77525,29.05558 33.550491,33.550491 0 0 1 -33.55049,0 33.550491,33.550491 0 0 1 -16.77525,-29.05558"
       inkscape:export-xdpi="200"
       inkscape:export-ydpi="200" />
    <path
       style="opacity:1;fill:#f6f6f3;fill-opacity:0.98039216;fill-rule:nonzero;stroke:none;stroke-width:0.40086237;stroke-linecap:round;stroke-linejoin:round;stroke-miterlimit:4;stroke-dasharray:none;stroke-dashoffset:0;stroke-opacity:1;paint-order:normal"
       id="path815-2-1-7"
       sodipodi:type="arc"
       sodipodi:cx="69.358505"
       sodipodi:cy="-165.22632"
       sodipodi:rx="27.07258"
       sodipodi:ry="27.07258"
       sodipodi:start="0"
       sodipodi:end="3.1415927"
       sodipodi:open="true"
       d="m 96.431086,-165.22632 a 27.07258,27.07258 0 0 1 -13.536291,23.44554 27.07258,27.07258 0 0 1 -27.072581,0 27.07258,27.07258 0 0 1 -13.536289,-23.44554"
       transform="scale(1,-1)"
       inkscape:export-xdpi="200"
       inkscape:export-ydpi="200" />
    <path
       style="opacity:1;fill:#f6f6f3;fill-opacity:0.98039216;fill-rule:nonzero;stroke:none;stroke-width:0.38209862;stroke-linecap:round;stroke-linejoin:round;stroke-miterlimit:4;stroke-dasharray:none;stroke-dashoffset:0;stroke-opacity:1;paint-order:normal"
       id="path815-3-9-2-8"
       sodipodi:type="arc"
       sodipodi:cx="169.8777"
       sodipodi:cy="-164.55127"
       sodipodi:rx="25.805351"
       sodipodi:ry="25.805351"
       sodipodi:start="0"
       sodipodi:end="3.1415927"
       sodipodi:open="true"
       d="m 195.68305,-164.55127 a 25.805351,25.805351 0 0 1 -12.90267,22.34809 25.805351,25.805351 0 0 1 -25.80536,0 25.805351,25.805351 0 0 1 -12.90267,-22.34809"
       transform="scale(1,-1)"
       inkscape:export-xdpi="200"
       inkscape:export-ydpi="200" />
    <path
       style="opacity:1;fill:#f6f6f3;fill-opacity:0.98039216;fill-rule:nonzero;stroke:none;stroke-width:0.32401422;stroke-linecap:round;stroke-linejoin:round;stroke-miterlimit:4;stroke-dasharray:none;stroke-dashoffset:0;stroke-opacity:1;paint-order:normal"
       id="path815-3-6-1-93-4"
       sodipodi:type="arc"
       sodipodi:cx="136.11153"
       sodipodi:cy="-168.28781"
       sodipodi:rx="19.928288"
       sodipodi:ry="24.028513"
       sodipodi:start="0"
       sodipodi:end="3.1415927"
       sodipodi:open="true"
       d="m 156.03981,-168.28781 a 19.928288,24.028513 0 0 1 -9.96414,20.8093 19.928288,24.028513 0 0 1 -19.92829,0 19.928288,24.028513 0 0 1 -9.96414,-20.8093"
       transform="scale(1,-1)"
       inkscape:export-xdpi="200"
       inkscape:export-ydpi="200" />
    <path
       style="opacity:1;fill:#f6f6f3;fill-opacity:0.98039216;fill-rule:nonzero;stroke:none;stroke-width:0.35629591;stroke-linecap:round;stroke-linejoin:round;stroke-miterlimit:4;stroke-dasharray:none;stroke-dashoffset:0;stroke-opacity:1;paint-order:normal"
       id="path815-3-6-3-2-5"
       sodipodi:type="arc"
       sodipodi:cx="33.370762"
       sodipodi:cy="169.21967"
       sodipodi:rx="28.927769"
       sodipodi:ry="20.015921"
       sodipodi:start="0"
       sodipodi:end="3.1415927"
       sodipodi:open="true"
       d="m 62.298531,169.21967 a 28.927769,20.015921 0 0 1 -14.463885,17.33429 28.927769,20.015921 0 0 1 -28.927769,0 28.927769,20.015921 0 0 1 -14.4638838,-17.3343"
       inkscape:export-xdpi="200"
       inkscape:export-ydpi="200" />
    <path
       style="opacity:1;fill:#f6f6f3;fill-opacity:0.98039216;fill-rule:nonzero;stroke:none;stroke-width:0.31063274;stroke-linecap:round;stroke-linejoin:round;stroke-miterlimit:4;stroke-dasharray:none;stroke-dashoffset:0;stroke-opacity:1;paint-order:normal"
       id="path815-3-6-3-5-61-0"
       sodipodi:type="arc"
       sodipodi:cx="72.2061"
       sodipodi:cy="163.53748"
       sodipodi:rx="21.988096"
       sodipodi:ry="20.015921"
       sodipodi:start="0"
       sodipodi:end="3.1415927"
       sodipodi:open="true"
       d="m 94.194197,163.53748 a 21.988096,20.015921 0 0 1 -10.994049,17.33429 21.988096,20.015921 0 0 1 -21.988096,0 21.988096,20.015921 0 0 1 -10.994048,-17.3343"
       inkscape:export-xdpi="200"
       inkscape:export-ydpi="200" />
    <path
       style="opacity:1;fill:#f6f6f3;fill-opacity:0.98039216;fill-rule:nonzero;stroke:none;stroke-width:0.22321881;stroke-linecap:round;stroke-linejoin:round;stroke-miterlimit:4;stroke-dasharray:none;stroke-dashoffset:0;stroke-opacity:1;paint-order:normal"
       id="path815-3-6-3-5-6-8-3"
       sodipodi:type="arc"
       sodipodi:cx="104.0518"
       sodipodi:cy="169.60956"
       sodipodi:rx="20.206547"
       sodipodi:ry="11.247042"
       sodipodi:start="0"
       sodipodi:end="3.1415927"
       sodipodi:open="true"
       d="m 124.25835,169.60956 a 20.206547,11.247042 0 0 1 -10.10327,9.74022 20.206547,11.247042 0 0 1 -20.20655,0 20.206547,11.247042 0 0 1 -10.103273,-9.74022"
       inkscape:export-xdpi="200"
       inkscape:export-ydpi="200" />
    <path
       style="opacity:1;fill:#f6f6f3;fill-opacity:0.98039216;fill-rule:nonzero;stroke:none;stroke-width:0.32416835;stroke-linecap:round;stroke-linejoin:round;stroke-miterlimit:4;stroke-dasharray:none;stroke-dashoffset:0;stroke-opacity:1;paint-order:normal"
       id="path815-2-1-7-6"
       sodipodi:type="arc"
       sodipodi:cx="107.58549"
       sodipodi:cy="-172.39436"
       sodipodi:rx="21.660374"
       sodipodi:ry="22.128094"
       sodipodi:start="0"
       sodipodi:end="3.1415927"
       sodipodi:open="true"
       d="m 129.24586,-172.39436 a 21.660374,22.128094 0 0 1 -10.83019,19.16349 21.660374,22.128094 0 0 1 -21.66037,0 21.660374,22.128094 0 0 1 -10.830186,-19.16349"
       transform="scale(1,-1)"
       inkscape:export-xdpi="200"
       inkscape:export-ydpi="200" />
    <path
       style="opacity:1;fill:#f6f6f3;fill-opacity:0.98039216;fill-rule:nonzero;stroke:none;stroke-width:0.34206855;stroke-linecap:round;stroke-linejoin:round;stroke-miterlimit:4;stroke-dasharray:none;stroke-dashoffset:0;stroke-opacity:1;paint-order:normal"
       id="path815-3-6-3-5-61-0-1"
       sodipodi:type="arc"
       sodipodi:cx="29.332829"
       sodipodi:cy="-169.8987"
       sodipodi:rx="24.994879"
       sodipodi:ry="21.352268"
       sodipodi:start="0"
       sodipodi:end="3.1415927"
       sodipodi:open="true"
       d="m 54.327707,-169.8987 a 24.994879,21.352268 0 0 1 -12.497439,18.49161 24.994879,21.352268 0 0 1 -24.99488,0 24.994879,21.352268 0 0 1 -12.4974382,-18.49161"
       transform="scale(1,-1)"
       inkscape:export-xdpi="200"
       inkscape:export-ydpi="200" />
  </g>
</svg>
